HIERARCHY
ROOT Hips
{
    OFFSET 0.000000 0.000000 0.000000
    CHANNELS 6 Xposition Yposition Zposition Zrotation Xrotation Yrotation
    JOINT Spine
    {
        OFFSET -0.000000 14.517291 0.000000
        CHANNELS 3 Zrotation Xrotation Yrotation
        JOINT Spine1
        {
            OFFSET -0.000000 37.558300 0.000000
            CHANNELS 3 Zrotation Xrotation Yrotation
            JOINT Neck
            {
                OFFSET -0.000000 37.404057 3.400369
                CHANNELS 3 Zrotation Xrotation Yrotation
                JOINT Head
                {
                    OFFSET -0.000000 24.785618 -3.540803
                    CHANNELS 3 Zrotation Xrotation Yrotation
                    End Site
                    {
                        OFFSET -0.000000 35.408028 0.000000
                    }
                }
            }
            JOINT LeftShoulder
            {
                OFFSET 6.992933 33.973492 -0.192664
                CHANNELS 3 Zrotation Xrotation Yrotation
                JOINT LeftArm
                {
                    OFFSET 21.527611 0.000000 0.000000
                    CHANNELS 3 Zrotation Xrotation Yrotation
                    JOINT LeftForeArm
                    {
                        OFFSET 56.353916 0.000000 0.000000
                        CHANNELS 3 Zrotation Xrotation Yrotation
                        JOINT LeftHand
                        {
                            OFFSET 47.774071 0.000000 0.000000
                            CHANNELS 3 Zrotation Xrotation Yrotation
                            End Site
                            {
                                OFFSET 26.556021 0.000000 0.000000
                            }
                        }
                    }
                }
            }
            JOINT RightShoulder
            {
                OFFSET -7.065357 33.973492 -0.192664
                CHANNELS 3 Zrotation Xrotation Yrotation
                JOINT RightArm
                {
                    OFFSET -21.527611 0.000000 0.000000
                    CHANNELS 3 Zrotation Xrotation Yrotation
                    JOINT RightForeArm
                    {
                        OFFSET -56.353916 0.000000 0.000000
                        CHANNELS 3 Zrotation Xrotation Yrotation
                        JOINT RightHand
                        {
                            OFFSET -47.774071 0.000000 0.000000
                            CHANNELS 3 Zrotation Xrotation Yrotation
                            End Site
                            {
                                OFFSET -26.556021 0.000000 0.000000
                            }
                        }
                    }
                }
            }
        }
    }
    JOINT LeftUpLeg
    {
        OFFSET 17.704014 0.000000 0.000000
        CHANNELS 3 Zrotation Xrotation Yrotation
        JOINT LeftLeg
        {
            OFFSET -0.000000 -81.181816 0.000000
            CHANNELS 3 Zrotation Xrotation Yrotation
            JOINT LeftFoot
            {
                OFFSET -0.000000 -62.821102 0.000000
                CHANNELS 3 Zrotation Xrotation Yrotation
                JOINT LeftToeBase
                {
                    OFFSET -0.000000 -11.507608 26.556021
                    CHANNELS 3 Zrotation Xrotation Yrotation
                    End Site
                    {
                        OFFSET -0.000000 0.000000 7.081605
                    }
                }
            }
        }
    }
    JOINT RightUpLeg
    {
        OFFSET -17.704014 0.000000 0.000000
        CHANNELS 3 Zrotation Xrotation Yrotation
        JOINT RightLeg
        {
            OFFSET -0.000000 -81.181816 0.000000
            CHANNELS 3 Zrotation Xrotation Yrotation
            JOINT RightFoot
            {
                OFFSET -0.000000 -62.821102 0.000000
                CHANNELS 3 Zrotation Xrotation Yrotation
                JOINT RightToeBase
                {
                    OFFSET -0.000000 -11.507608 26.556021
                    CHANNELS 3 Zrotation Xrotation Yrotation
                    End Site
                    {
                        OFFSET -0.000000 0.000000 7.081605
                    }
                }
            }
        }
    }
}
MOTION
Frames:    6
Frame Time:    0.008333
48.684380    153.845871    -101.489555    -0.988377    6.069012    -32.048649    -2.865492    -1.662914    -20.835413    -3.374381    -0.429441    -6.943923    21.877140    -1.696093    1.864826    -1.165880    6.305077    -1.788030    18.550541    -4.814635    -29.618414    -20.239182    -34.579834    -44.289490    1.389405    -54.660889    -76.544968    -34.999378    -43.305744    -48.303833    -11.824963    -2.380842    -18.105589    16.620806    15.437243    4.882168    23.472261    27.142199    -5.363098    -19.848177    24.210468    24.572447    0.317996    -2.064063    25.660139    -14.724421    34.030449    -0.721611    12.317711    -32.797012    56.637005    0.000000    0.000000    0.000000    11.657217    -38.408092    30.213842    10.506130    20.227734    -3.405665    -3.235277    20.473320    1.981508    0.000000    0.000000    0.000000    
48.796623    153.842529    -101.468788    -0.985291    6.126043    -32.181274    -2.858471    -1.668900    -20.822790    -3.317977    -0.425357    -6.939374    21.833549    -1.682226    1.832134    -1.114626    6.335143    -1.807193    18.532438    -4.734968    -29.641911    -20.219757    -34.522392    -44.339066    1.445495    -54.712574    -76.382309    -35.080914    -43.278675    -48.419121    -11.860229    -2.334079    -18.151297    16.692421    15.552716    4.809692    23.427446    27.132519    -5.363548    -19.877234    24.192665    24.572475    0.309037    -2.143989    25.690834    -14.741321    34.078320    -0.610898    12.256246    -32.840748    56.607857    0.000000    0.000000    0.000000    11.767037    -38.449921    30.361547    10.480125    20.211250    -3.273087    -3.236722    20.564245    1.893347    0.000000    0.000000    0.000000    
48.953758    153.825134    -101.447952    -0.948451    6.194544    -32.322227    -2.819458    -1.679824    -20.792324    -3.315597    -0.467758    -6.930534    21.807167    -1.655402    1.780713    -1.067783    6.355005    -1.846675    18.544437    -4.662617    -29.679022    -20.224745    -34.474243    -44.394718    1.531503    -54.771626    -76.229530    -35.116451    -43.284447    -48.450222    -11.856422    -2.301293    -18.164814    16.751564    15.737123    4.711914    23.323227    27.023392    -5.279540    -19.790977    24.084421    24.534058    0.251557    -2.264236    25.721626    -14.730409    34.128113    -0.525246    12.203243    -32.905643    56.609375    0.000000    0.000000    0.000000    11.849185    -38.538002    30.482933    10.443829    20.216940    -3.136299    -3.219276    20.633953    1.829986    0.000000    0.000000    0.000000    
49.068516    153.813080    -101.421234    -0.951375    6.240067    -32.447430    -2.808893    -1.672961    -20.765697    -3.288121    -0.468082    -6.921669    21.826851    -1.663504    1.756134    -1.047876    6.418814    -1.874868    18.584352    -4.623670    -29.708267    -20.261398    -34.458420    -44.435562    1.512743    -54.756794    -76.171486    -35.080307    -43.286633    -48.464298    -11.822227    -2.293909    -18.163055    16.772650    15.830626    4.660717    23.285404    26.932238    -5.248162    -19.709646    24.016747    24.434021    0.238366    -2.317217    25.726189    -14.776757    34.139599    -0.413147    12.194731    -32.942921    56.625996    0.000000    0.000000    0.000000    11.956641    -38.565769    30.630583    10.399208    20.203569    -3.043141    -3.223230    20.706905    1.802926    0.000000    0.000000    0.000000    
49.178349    153.799088    -101.396088    -0.951874    6.286629    -32.557941    -2.791881    -1.674048    -20.742319    -3.264284    -0.469415    -6.913893    21.854418    -1.670571    1.735466    -1.056463    6.485453    -1.902592    18.587397    -4.602374    -29.731764    -20.160759    -34.388081    -44.424847    1.629669    -54.819836    -75.942886    -35.175751    -43.241123    -48.559727    -11.819727    -2.282302    -18.159891    16.823162    15.884592    4.627248    23.283495    26.865805    -5.222816    -19.674240    23.957701    24.393965    0.221115    -2.370614    25.735565    -14.803479    34.154972    -0.352355    12.191285    -32.988224    56.658894    0.000000    0.000000    0.000000    12.052995    -38.600384    30.806637    10.379847    20.185003    -3.023185    -3.219816    20.773224    1.786722    0.000000    0.000000    0.000000    
49.288960    153.786438    -101.371918    -0.952615    6.323682    -32.660927    -2.781683    -1.659042    -20.715763    -3.234160    -0.473255    -6.905196    21.836229    -1.678963    1.703600    -1.001381    6.540525    -1.929041    18.598049    -4.615443    -29.726799    -20.144913    -34.287086    -44.419727    1.678824    -54.849483    -75.860687    -35.203644    -43.224606    -48.619667    -11.804490    -2.250489    -18.171513    16.876575    16.001583    4.642249    23.203447    26.789997    -5.138060    -19.606369    23.883196    24.341251    0.193624    -2.408084    25.760670    -14.807170    34.161694    -0.359827    12.205203    -33.029350    56.724243    0.000000    0.000000    0.000000    12.138563    -38.629658    30.974319    10.362348    20.160624    -2.977460    -3.234166    20.853413    1.753379    0.000000    0.000000    0.000000    
